<svg xmlns="http://www.w3.org/2000/svg" version="1.1" xmlns:xlink="http://www.w3.org/1999/xlink" viewBox="0 0 700 700" style="overflow: hidden; display: block;" width="700" height="700"><defs></defs><g id="two-0" transform="matrix(1 0 0 1 0 0)" opacity="1"><path transform="matrix(1 0 0 1 350 350)" id="two-46" d="M 125.996047 27.733827 C 125.946537 89.264328 303.472467 72.777908 281.691485 130.324359 C 265.695366 172.586913 172.559498 74.431084 146.116424 111.074818 C 114.386576 155.044746 261.440064 224.056982 219.305609 258.186523 C 172.725572 295.917051 129.062137 175.011888 77.017068 145.269602 C 64.406446 138.062988 50.448926 128.722399 35.94281 129.454303 C 25.544701 129.978938 14.632643 135.84895 7.791011 143.696751 C -32.07219 189.422456 -0.287954 285.880423 -52.052821 317.508156 C -72.089347 329.750241 -105.223229 323.333854 -122.486633 307.418267 C -146.108567 285.640584 -118.591013 232.058957 -144.064593 212.479378 C -165.921624 195.679561 -211.81134 238.178943 -227.546084 215.543099 C -248.895731 184.82971 -165.925478 143.465499 -184.181579 110.818378 C -200.192217 82.186785 -271.159113 125.971208 -282.342508 95.132267 C -292.9601 65.853563 -217.140746 54.943183 -220.356379 23.9652 C -223.5192 -6.504016 -278.438823 -5.873181 -294.401848 -32.018131 C -306.861888 -52.425736 -314.385227 -80.697521 -306.865189 -103.394921 C -299.366676 -126.027354 -277.473545 -147.063205 -254.399592 -153.067156 C -212.599267 -163.943798 -167.323856 -103.983066 -127.548601 -120.820453 C -114.777544 -126.226609 -118.059857 -149.413549 -106.631661 -157.269934 C -95.238009 -165.102571 -77.715354 -157.776867 -65.234229 -163.725567 C -51.808281 -170.124585 -46.658833 -194.47236 -31.795345 -193.94302 C -12.719632 -193.263668 -10.644283 -149.513505 8.252451 -152.207521 C 59.43454 -159.504305 29.24135 -294.711653 80.811635 -291.057207 C 109.843312 -288.999924 107.373958 -236.876343 110.228042 -207.912144 C 113.307302 -176.662773 70.874869 -131.729994 96.609921 -113.737992 C 152.505505 -74.660027 224.31867 -253.100032 278.558618 -211.754757 C 303.533492 -192.717257 253.64926 -150.209224 257.239809 -119.011809 C 259.605724 -98.454943 291.137548 -82.388949 284.80288 -62.689855 C 271.431683 -21.109069 205.758999 -22.351937 168.233786 -0.000001 C 153.908015 8.533162 126.009464 11.059223 125.996047 27.733827 Z " fill="hsl(105, 69%, 30%)" stroke="undefined" stroke-width="1" stroke-opacity="1" fill-opacity="1" visibility="visible" stroke-linecap="butt" stroke-linejoin="miter" stroke-miterlimit="4"></path></g></svg>